<svg xmlns="http://www.w3.org/2000/svg" viewBox="0 0 32 32">
  <rect width="32" height="32" rx="6" fill="#f59e0b"/>
  <svg x="4" y="4" width="24" height="24" viewBox="0 0 24 24" fill="none" stroke="white" stroke-width="2" stroke-linecap="round" stroke-linejoin="round">
    <path d="M2 18a1 1 0 0 0 1 1h18a1 1 0 0 0 1-1v-2a1 1 0 0 0-1-1H3a1 1 0 0 0-1 1v2z"/>
    <path d="M10 15V6.5a3.5 3.5 0 0 1 7 0V15"/>
    <path d="M4 15v-3a6 6 0 0 1 6-6"/>
    <path d="M14 6a6 6 0 0 1 6 6v3"/>
  </svg>
</svg>
